<mxfile host="app.diagrams.net" agent="Mozilla/5.0 (Windows NT 10.0; Win64; x64) AppleWebKit/537.36 (KHTML, like Gecko) Chrome/128.0.0.0 Safari/537.36 Edg/128.0.0.0" version="24.8.6">
  <diagram name="第 1 页" id="5A3pjhANDhAnxElPiJom">
    <mxGraphModel dx="1173" dy="770" grid="1" gridSize="10" guides="1" tooltips="1" connect="1" arrows="1" fold="1" page="1" pageScale="1" pageWidth="827" pageHeight="1169" math="0" shadow="0">
      <root>
        <mxCell id="0" />
        <mxCell id="1" parent="0" />
        <mxCell id="ev1WSEcYcD8Ga_zfIdH8-22" value="&lt;b&gt;Technical Support Server&lt;/b&gt;" style="verticalAlign=top;align=center;spacingTop=8;spacingLeft=2;spacingRight=12;shape=cube;size=10;direction=south;fontStyle=4;html=1;whiteSpace=wrap;" vertex="1" parent="1">
          <mxGeometry x="30" y="80" width="390" height="150" as="geometry" />
        </mxCell>
        <mxCell id="ev1WSEcYcD8Ga_zfIdH8-23" value="System Admin Interface" style="html=1;dropTarget=0;whiteSpace=wrap;" vertex="1" parent="1">
          <mxGeometry x="40" y="130" width="170" height="70" as="geometry" />
        </mxCell>
        <mxCell id="ev1WSEcYcD8Ga_zfIdH8-24" value="" style="shape=module;jettyWidth=8;jettyHeight=4;" vertex="1" parent="ev1WSEcYcD8Ga_zfIdH8-23">
          <mxGeometry x="1" width="20" height="20" relative="1" as="geometry">
            <mxPoint x="-27" y="7" as="offset" />
          </mxGeometry>
        </mxCell>
        <mxCell id="ev1WSEcYcD8Ga_zfIdH8-25" value="Backend Management Interface" style="html=1;dropTarget=0;whiteSpace=wrap;" vertex="1" parent="1">
          <mxGeometry x="230" y="130" width="160" height="70" as="geometry" />
        </mxCell>
        <mxCell id="ev1WSEcYcD8Ga_zfIdH8-26" value="" style="shape=module;jettyWidth=8;jettyHeight=4;" vertex="1" parent="ev1WSEcYcD8Ga_zfIdH8-25">
          <mxGeometry x="1" width="20" height="20" relative="1" as="geometry">
            <mxPoint x="-27" y="7" as="offset" />
          </mxGeometry>
        </mxCell>
        <mxCell id="ev1WSEcYcD8Ga_zfIdH8-27" value="Family Member Mobile Devices" style="verticalAlign=top;align=center;spacingTop=8;spacingLeft=2;spacingRight=12;shape=cube;size=10;direction=south;fontStyle=4;html=1;whiteSpace=wrap;" vertex="1" parent="1">
          <mxGeometry x="30" y="260" width="390" height="130" as="geometry" />
        </mxCell>
        <mxCell id="ev1WSEcYcD8Ga_zfIdH8-28" value="Smart and Safe Homecare App" style="html=1;dropTarget=0;whiteSpace=wrap;" vertex="1" parent="1">
          <mxGeometry x="130" y="300" width="180" height="70" as="geometry" />
        </mxCell>
        <mxCell id="ev1WSEcYcD8Ga_zfIdH8-29" value="" style="shape=module;jettyWidth=8;jettyHeight=4;" vertex="1" parent="ev1WSEcYcD8Ga_zfIdH8-28">
          <mxGeometry x="1" width="20" height="20" relative="1" as="geometry">
            <mxPoint x="-27" y="7" as="offset" />
          </mxGeometry>
        </mxCell>
        <mxCell id="ev1WSEcYcD8Ga_zfIdH8-32" value="&lt;b&gt;Healthcare Provider Office&lt;/b&gt;" style="verticalAlign=top;align=center;spacingTop=8;spacingLeft=2;spacingRight=12;shape=cube;size=10;direction=south;fontStyle=4;html=1;whiteSpace=wrap;" vertex="1" parent="1">
          <mxGeometry x="437" y="80" width="390" height="452.5" as="geometry" />
        </mxCell>
        <mxCell id="ev1WSEcYcD8Ga_zfIdH8-33" value="Healthcare App" style="html=1;dropTarget=0;whiteSpace=wrap;" vertex="1" parent="1">
          <mxGeometry x="542" y="130" width="168" height="70" as="geometry" />
        </mxCell>
        <mxCell id="ev1WSEcYcD8Ga_zfIdH8-34" value="" style="shape=module;jettyWidth=8;jettyHeight=4;" vertex="1" parent="ev1WSEcYcD8Ga_zfIdH8-33">
          <mxGeometry x="1" width="20" height="20" relative="1" as="geometry">
            <mxPoint x="-27" y="7" as="offset" />
          </mxGeometry>
        </mxCell>
        <mxCell id="ev1WSEcYcD8Ga_zfIdH8-41" value="&amp;laquo;Annotation&amp;raquo;&lt;br/&gt;&lt;b&gt;Component&lt;/b&gt;" style="html=1;dropTarget=0;whiteSpace=wrap;" vertex="1" parent="1">
          <mxGeometry x="506" y="320" width="240" height="120" as="geometry" />
        </mxCell>
        <mxCell id="ev1WSEcYcD8Ga_zfIdH8-42" value="" style="shape=module;jettyWidth=8;jettyHeight=4;" vertex="1" parent="ev1WSEcYcD8Ga_zfIdH8-41">
          <mxGeometry x="1" width="20" height="20" relative="1" as="geometry">
            <mxPoint x="-27" y="7" as="offset" />
          </mxGeometry>
        </mxCell>
        <mxCell id="ev1WSEcYcD8Ga_zfIdH8-39" value="Health Data Platform" style="html=1;dropTarget=0;whiteSpace=wrap;" vertex="1" parent="1">
          <mxGeometry x="536" y="400" width="180" height="60" as="geometry" />
        </mxCell>
        <mxCell id="ev1WSEcYcD8Ga_zfIdH8-40" value="" style="shape=module;jettyWidth=8;jettyHeight=4;" vertex="1" parent="ev1WSEcYcD8Ga_zfIdH8-39">
          <mxGeometry x="1" width="20" height="20" relative="1" as="geometry">
            <mxPoint x="-27" y="7" as="offset" />
          </mxGeometry>
        </mxCell>
      </root>
    </mxGraphModel>
  </diagram>
</mxfile>
